<svg width="91" height="204" viewBox="0 0 91 204" fill="none" xmlns="http://www.w3.org/2000/svg">
<path d="M-167.871 10.4821L-170.694 0L-173.516 10.4821L-184 13.3043L-173.516 16.1266L-170.694 26.6087L-167.871 16.1266L-157.387 13.3043L-167.871 10.4821Z" fill="#E08330" fill-opacity="0.61"/>
<path d="M-132.387 10.4821L-135.21 0L-138.032 10.4821L-148.516 13.3043L-138.032 16.1266L-135.21 26.6087L-132.387 16.1266L-121.903 13.3043L-132.387 10.4821Z" fill="#E08330" fill-opacity="0.61"/>
<path d="M-99.7258 0L-96.9031 10.4821L-86.4194 13.3043L-96.9031 16.1266L-99.7258 26.6087L-102.549 16.1266L-113.032 13.3043L-102.549 10.4821L-99.7258 0Z" fill="#E08330" fill-opacity="0.61"/>
<path d="M-61.4192 10.4821L-64.2419 0L-67.0647 10.4821L-77.5484 13.3043L-67.0647 16.1266L-64.2419 26.6087L-61.4192 16.1266L-50.9355 13.3043L-61.4192 10.4821Z" fill="#E08330" fill-opacity="0.61"/>
<path d="M-28.7581 0L-25.9353 10.4821L-15.4516 13.3043L-25.9353 16.1266L-28.7581 26.6087L-31.5808 16.1266L-42.0645 13.3043L-31.5808 10.4821L-28.7581 0Z" fill="#E08330" fill-opacity="0.61"/>
<path d="M9.54852 10.4821L6.7258 0L3.90308 10.4821L-6.58064 13.3043L3.90308 16.1266L6.7258 26.6087L9.54852 16.1266L20.0323 13.3043L9.54852 10.4821Z" fill="#E08330" fill-opacity="0.61"/>
<path d="M42.2097 0L45.0324 10.4821L55.5161 13.3043L45.0324 16.1266L42.2097 26.6087L39.3869 16.1266L28.9032 13.3043L39.3869 10.4821L42.2097 0Z" fill="#E08330" fill-opacity="0.61"/>
<path d="M80.5163 10.4821L77.6935 0L74.8708 10.4821L64.3871 13.3043L74.8708 16.1266L77.6935 26.6087L80.5163 16.1266L91 13.3043L80.5163 10.4821Z" fill="#E08330" fill-opacity="0.61"/>
<path d="M-170.694 35.4783L-167.871 45.9603L-157.387 48.7826L-167.871 51.6049L-170.694 62.087L-173.516 51.6049L-184 48.7826L-173.516 45.9603L-170.694 35.4783Z" fill="#E08330" fill-opacity="0.61"/>
<path d="M-132.387 45.9603L-135.21 35.4783L-138.032 45.9603L-148.516 48.7826L-138.032 51.6049L-135.21 62.087L-132.387 51.6049L-121.903 48.7826L-132.387 45.9603Z" fill="#E08330" fill-opacity="0.61"/>
<path d="M-99.7258 35.4783L-96.9031 45.9603L-86.4194 48.7826L-96.9031 51.6049L-99.7258 62.087L-102.549 51.6049L-113.032 48.7826L-102.549 45.9603L-99.7258 35.4783Z" fill="#E08330" fill-opacity="0.61"/>
<path d="M-61.4192 45.9603L-64.2419 35.4783L-67.0647 45.9603L-77.5484 48.7826L-67.0647 51.6049L-64.2419 62.087L-61.4192 51.6049L-50.9355 48.7826L-61.4192 45.9603Z" fill="#E08330" fill-opacity="0.61"/>
<path d="M-28.7581 35.4783L-25.9353 45.9603L-15.4516 48.7826L-25.9353 51.6049L-28.7581 62.087L-31.5808 51.6049L-42.0645 48.7826L-31.5808 45.9603L-28.7581 35.4783Z" fill="#E08330" fill-opacity="0.61"/>
<path d="M9.54852 45.9603L6.7258 35.4783L3.90308 45.9603L-6.58064 48.7826L3.90308 51.6049L6.7258 62.087L9.54852 51.6049L20.0323 48.7826L9.54852 45.9603Z" fill="#E08330" fill-opacity="0.61"/>
<path d="M42.2097 35.4783L45.0324 45.9603L55.5161 48.7826L45.0324 51.6049L42.2097 62.087L39.3869 51.6049L28.9032 48.7826L39.3869 45.9603L42.2097 35.4783Z" fill="#E08330" fill-opacity="0.61"/>
<path d="M80.5163 45.9603L77.6935 35.4783L74.8708 45.9603L64.3871 48.7826L74.8708 51.6049L77.6935 62.087L80.5163 51.6049L91 48.7826L80.5163 45.9603Z" fill="#E08330" fill-opacity="0.61"/>
<path d="M-170.694 70.9565L-167.871 81.4386L-157.387 84.2609L-167.871 87.0831L-170.694 97.5652L-173.516 87.0831L-184 84.2609L-173.516 81.4386L-170.694 70.9565Z" fill="#E08330" fill-opacity="0.61"/>
<path d="M-132.387 81.4386L-135.21 70.9565L-138.032 81.4386L-148.516 84.2609L-138.032 87.0831L-135.21 97.5652L-132.387 87.0831L-121.903 84.2609L-132.387 81.4386Z" fill="#E08330" fill-opacity="0.61"/>
<path d="M-99.7258 70.9565L-96.9031 81.4386L-86.4194 84.2609L-96.9031 87.0831L-99.7258 97.5652L-102.549 87.0831L-113.032 84.2609L-102.549 81.4386L-99.7258 70.9565Z" fill="#E08330" fill-opacity="0.61"/>
<path d="M-61.4192 81.4386L-64.2419 70.9565L-67.0647 81.4386L-77.5484 84.2609L-67.0647 87.0831L-64.2419 97.5652L-61.4192 87.0831L-50.9355 84.2609L-61.4192 81.4386Z" fill="#E08330" fill-opacity="0.61"/>
<path d="M-28.7581 70.9565L-25.9353 81.4386L-15.4516 84.2609L-25.9353 87.0831L-28.7581 97.5652L-31.5808 87.0831L-42.0645 84.2609L-31.5808 81.4386L-28.7581 70.9565Z" fill="#E08330" fill-opacity="0.61"/>
<path d="M9.54852 81.4386L6.7258 70.9565L3.90308 81.4386L-6.58064 84.2609L3.90308 87.0831L6.7258 97.5652L9.54852 87.0831L20.0323 84.2609L9.54852 81.4386Z" fill="#E08330" fill-opacity="0.61"/>
<path d="M42.2097 70.9565L45.0324 81.4386L55.5161 84.2609L45.0324 87.0831L42.2097 97.5652L39.3869 87.0831L28.9032 84.2609L39.3869 81.4386L42.2097 70.9565Z" fill="#E08330" fill-opacity="0.61"/>
<path d="M80.5163 81.4386L77.6935 70.9565L74.8708 81.4386L64.3871 84.2609L74.8708 87.0831L77.6935 97.5652L80.5163 87.0831L91 84.2609L80.5163 81.4386Z" fill="#E08330" fill-opacity="0.61"/>
<path d="M-170.694 106.435L-167.871 116.917L-157.387 119.739L-167.871 122.561L-170.694 133.043L-173.516 122.561L-184 119.739L-173.516 116.917L-170.694 106.435Z" fill="#E08330" fill-opacity="0.61"/>
<path d="M-132.387 116.917L-135.21 106.435L-138.032 116.917L-148.516 119.739L-138.032 122.561L-135.21 133.043L-132.387 122.561L-121.903 119.739L-132.387 116.917Z" fill="#E08330" fill-opacity="0.61"/>
<path d="M-99.7258 106.435L-96.9031 116.917L-86.4194 119.739L-96.9031 122.561L-99.7258 133.043L-102.549 122.561L-113.032 119.739L-102.549 116.917L-99.7258 106.435Z" fill="#E08330" fill-opacity="0.61"/>
<path d="M-61.4192 116.917L-64.2419 106.435L-67.0647 116.917L-77.5484 119.739L-67.0647 122.561L-64.2419 133.043L-61.4192 122.561L-50.9355 119.739L-61.4192 116.917Z" fill="#E08330" fill-opacity="0.61"/>
<path d="M-28.7581 106.435L-25.9353 116.917L-15.4516 119.739L-25.9353 122.561L-28.7581 133.043L-31.5808 122.561L-42.0645 119.739L-31.5808 116.917L-28.7581 106.435Z" fill="#E08330" fill-opacity="0.61"/>
<path d="M9.54852 116.917L6.7258 106.435L3.90308 116.917L-6.58064 119.739L3.90308 122.561L6.7258 133.043L9.54852 122.561L20.0323 119.739L9.54852 116.917Z" fill="#E08330" fill-opacity="0.61"/>
<path d="M42.2097 106.435L45.0324 116.917L55.5161 119.739L45.0324 122.561L42.2097 133.043L39.3869 122.561L28.9032 119.739L39.3869 116.917L42.2097 106.435Z" fill="#E08330" fill-opacity="0.61"/>
<path d="M80.5163 116.917L77.6935 106.435L74.8708 116.917L64.3871 119.739L74.8708 122.561L77.6935 133.043L80.5163 122.561L91 119.739L80.5163 116.917Z" fill="#E08330" fill-opacity="0.61"/>
<path d="M-170.694 141.913L-167.871 152.395L-157.387 155.217L-167.871 158.04L-170.694 168.522L-173.516 158.04L-184 155.217L-173.516 152.395L-170.694 141.913Z" fill="#E08330" fill-opacity="0.61"/>
<path d="M-132.387 152.395L-135.21 141.913L-138.032 152.395L-148.516 155.217L-138.032 158.04L-135.21 168.522L-132.387 158.04L-121.903 155.217L-132.387 152.395Z" fill="#E08330" fill-opacity="0.61"/>
<path d="M-99.7258 141.913L-96.9031 152.395L-86.4194 155.217L-96.9031 158.04L-99.7258 168.522L-102.549 158.04L-113.032 155.217L-102.549 152.395L-99.7258 141.913Z" fill="#E08330" fill-opacity="0.61"/>
<path d="M-61.4192 152.395L-64.2419 141.913L-67.0647 152.395L-77.5484 155.217L-67.0647 158.04L-64.2419 168.522L-61.4192 158.04L-50.9355 155.217L-61.4192 152.395Z" fill="#E08330" fill-opacity="0.61"/>
<path d="M-28.7581 141.913L-25.9353 152.395L-15.4516 155.217L-25.9353 158.04L-28.7581 168.522L-31.5808 158.04L-42.0645 155.217L-31.5808 152.395L-28.7581 141.913Z" fill="#E08330" fill-opacity="0.61"/>
<path d="M9.54852 152.395L6.7258 141.913L3.90308 152.395L-6.58064 155.217L3.90308 158.04L6.7258 168.522L9.54852 158.04L20.0323 155.217L9.54852 152.395Z" fill="#E08330" fill-opacity="0.61"/>
<path d="M42.2097 141.913L45.0324 152.395L55.5161 155.217L45.0324 158.04L42.2097 168.522L39.3869 158.04L28.9032 155.217L39.3869 152.395L42.2097 141.913Z" fill="#E08330" fill-opacity="0.61"/>
<path d="M80.5163 152.395L77.6935 141.913L74.8708 152.395L64.3871 155.217L74.8708 158.04L77.6935 168.522L80.5163 158.04L91 155.217L80.5163 152.395Z" fill="#E08330" fill-opacity="0.61"/>
<path d="M-170.694 177.391L-167.871 187.873L-157.387 190.696L-167.871 193.518L-170.694 204L-173.516 193.518L-184 190.696L-173.516 187.873L-170.694 177.391Z" fill="#E08330" fill-opacity="0.61"/>
<path d="M-132.387 187.873L-135.21 177.391L-138.032 187.873L-148.516 190.696L-138.032 193.518L-135.21 204L-132.387 193.518L-121.903 190.696L-132.387 187.873Z" fill="#E08330" fill-opacity="0.61"/>
<path d="M-99.7258 177.391L-96.9031 187.873L-86.4194 190.696L-96.9031 193.518L-99.7258 204L-102.549 193.518L-113.032 190.696L-102.549 187.873L-99.7258 177.391Z" fill="#E08330" fill-opacity="0.61"/>
<path d="M-61.4192 187.873L-64.2419 177.391L-67.0647 187.873L-77.5484 190.696L-67.0647 193.518L-64.2419 204L-61.4192 193.518L-50.9355 190.696L-61.4192 187.873Z" fill="#E08330" fill-opacity="0.61"/>
<path d="M-28.7581 177.391L-25.9353 187.873L-15.4516 190.696L-25.9353 193.518L-28.7581 204L-31.5808 193.518L-42.0645 190.696L-31.5808 187.873L-28.7581 177.391Z" fill="#E08330" fill-opacity="0.61"/>
<path d="M9.54852 187.873L6.7258 177.391L3.90308 187.873L-6.58064 190.696L3.90308 193.518L6.7258 204L9.54852 193.518L20.0323 190.696L9.54852 187.873Z" fill="#E08330" fill-opacity="0.61"/>
<path d="M42.2097 177.391L45.0324 187.873L55.5161 190.696L45.0324 193.518L42.2097 204L39.3869 193.518L28.9032 190.696L39.3869 187.873L42.2097 177.391Z" fill="#E08330" fill-opacity="0.61"/>
<path d="M80.5163 187.873L77.6935 177.391L74.8708 187.873L64.3871 190.696L74.8708 193.518L77.6935 204L80.5163 193.518L91 190.696L80.5163 187.873Z" fill="#E08330" fill-opacity="0.61"/>
</svg>
