<svg width="202" height="202" viewBox="0 0 202 202" fill="none" xmlns="http://www.w3.org/2000/svg">
<path d="M194.787 46.9787C195.346 47.9476 195.891 48.926 196.421 49.9136C195.458 49.2841 194.815 48.2073 194.787 46.9787Z" fill="#B5CA42"/>
<path d="M175.036 22.0754C176.717 23.6528 178.347 25.2832 179.925 26.9641C179.315 28.0914 178.122 28.8571 176.75 28.8571C174.758 28.8571 173.143 27.2422 173.143 25.25C173.143 23.8783 173.909 22.6854 175.036 22.0754Z" fill="#B5CA42"/>
<path d="M152.086 5.57941C153.074 6.10925 154.052 6.65397 155.021 7.21328C153.793 7.18461 152.716 6.54155 152.086 5.57941Z" fill="#B5CA42"/>
<path d="M46.9787 7.21328C47.9476 6.65397 48.926 6.10925 49.9136 5.57941C49.2841 6.54155 48.2073 7.18461 46.9787 7.21328Z" fill="#B5CA42"/>
<path d="M22.0754 26.9641C23.6528 25.2832 25.2832 23.6528 26.9641 22.0754C28.0914 22.6854 28.8571 23.8783 28.8571 25.25C28.8571 27.2422 27.2422 28.8571 25.25 28.8571C23.8783 28.8571 22.6854 28.0914 22.0754 26.9641Z" fill="#B5CA42"/>
<path d="M5.57941 49.9136C6.10925 48.926 6.65397 47.9476 7.21328 46.9787C7.18461 48.2073 6.54155 49.2841 5.57941 49.9136Z" fill="#B5CA42"/>
<path d="M196.421 152.086C195.891 153.074 195.346 154.052 194.787 155.021C194.815 153.793 195.458 152.716 196.421 152.086Z" fill="#B5CA42"/>
<path d="M179.925 175.036C179.315 173.909 178.122 173.143 176.75 173.143C174.758 173.143 173.143 174.758 173.143 176.75C173.143 178.122 173.909 179.315 175.036 179.925C176.717 178.347 178.347 176.717 179.925 175.036Z" fill="#B5CA42"/>
<path d="M155.021 194.787C153.793 194.815 152.716 195.458 152.086 196.421C153.074 195.891 154.052 195.346 155.021 194.787Z" fill="#B5CA42"/>
<path d="M49.9136 196.421C49.2841 195.458 48.2073 194.815 46.9787 194.787C47.9476 195.346 48.926 195.891 49.9136 196.421Z" fill="#B5CA42"/>
<path d="M26.9641 179.925C28.0914 179.315 28.8571 178.122 28.8571 176.75C28.8571 174.758 27.2422 173.143 25.25 173.143C23.8783 173.143 22.6854 173.909 22.0754 175.036C23.6528 176.717 25.2832 178.347 26.9641 179.925Z" fill="#B5CA42"/>
<path d="M7.21328 155.021C7.18461 153.793 6.54155 152.716 5.57941 152.086C6.10925 153.074 6.65397 154.052 7.21328 155.021Z" fill="#B5CA42"/>
<path d="M72.1429 3.60714C72.1429 5.59931 70.5279 7.21429 68.5357 7.21429C66.5435 7.21429 64.9286 5.59931 64.9286 3.60714C64.9286 1.61497 66.5435 0 68.5357 0C70.5279 0 72.1429 1.61497 72.1429 3.60714Z" fill="#B5CA42"/>
<path d="M93.7857 3.60714C93.7857 5.59931 92.1707 7.21429 90.1786 7.21429C88.1864 7.21429 86.5714 5.59931 86.5714 3.60714C86.5714 1.61497 88.1864 0 90.1786 0C92.1707 0 93.7857 1.61497 93.7857 3.60714Z" fill="#B5CA42"/>
<path d="M115.429 3.60714C115.429 5.59931 113.814 7.21429 111.821 7.21429C109.829 7.21429 108.214 5.59931 108.214 3.60714C108.214 1.61497 109.829 0 111.821 0C113.814 0 115.429 1.61497 115.429 3.60714Z" fill="#B5CA42"/>
<path d="M137.071 3.60714C137.071 5.59931 135.456 7.21429 133.464 7.21429C131.472 7.21429 129.857 5.59931 129.857 3.60714C129.857 1.61497 131.472 0 133.464 0C135.456 0 137.071 1.61497 137.071 3.60714Z" fill="#B5CA42"/>
<path d="M50.5 25.25C50.5 27.2422 48.885 28.8571 46.8929 28.8571C44.9007 28.8571 43.2857 27.2422 43.2857 25.25C43.2857 23.2578 44.9007 21.6429 46.8929 21.6429C48.885 21.6429 50.5 23.2578 50.5 25.25Z" fill="#B5CA42"/>
<path d="M72.1429 25.25C72.1429 27.2422 70.5279 28.8571 68.5357 28.8571C66.5435 28.8571 64.9286 27.2422 64.9286 25.25C64.9286 23.2578 66.5435 21.6429 68.5357 21.6429C70.5279 21.6429 72.1429 23.2578 72.1429 25.25Z" fill="#B5CA42"/>
<path d="M93.7857 25.25C93.7857 27.2422 92.1707 28.8571 90.1786 28.8571C88.1864 28.8571 86.5714 27.2422 86.5714 25.25C86.5714 23.2578 88.1864 21.6429 90.1786 21.6429C92.1707 21.6429 93.7857 23.2578 93.7857 25.25Z" fill="#B5CA42"/>
<path d="M115.429 25.25C115.429 27.2422 113.814 28.8571 111.821 28.8571C109.829 28.8571 108.214 27.2422 108.214 25.25C108.214 23.2578 109.829 21.6429 111.821 21.6429C113.814 21.6429 115.429 23.2578 115.429 25.25Z" fill="#B5CA42"/>
<path d="M137.071 25.25C137.071 27.2422 135.456 28.8571 133.464 28.8571C131.472 28.8571 129.857 27.2422 129.857 25.25C129.857 23.2578 131.472 21.6429 133.464 21.6429C135.456 21.6429 137.071 23.2578 137.071 25.25Z" fill="#B5CA42"/>
<path d="M158.714 25.25C158.714 27.2422 157.099 28.8571 155.107 28.8571C153.115 28.8571 151.5 27.2422 151.5 25.25C151.5 23.2578 153.115 21.6429 155.107 21.6429C157.099 21.6429 158.714 23.2578 158.714 25.25Z" fill="#B5CA42"/>
<path d="M28.8571 46.8929C28.8571 48.885 27.2422 50.5 25.25 50.5C23.2578 50.5 21.6429 48.885 21.6429 46.8929C21.6429 44.9007 23.2578 43.2857 25.25 43.2857C27.2422 43.2857 28.8571 44.9007 28.8571 46.8929Z" fill="#B5CA42"/>
<path d="M50.5 46.8929C50.5 48.885 48.885 50.5 46.8929 50.5C44.9007 50.5 43.2857 48.885 43.2857 46.8929C43.2857 44.9007 44.9007 43.2857 46.8929 43.2857C48.885 43.2857 50.5 44.9007 50.5 46.8929Z" fill="#B5CA42"/>
<path d="M72.1429 46.8929C72.1429 48.885 70.5279 50.5 68.5357 50.5C66.5435 50.5 64.9286 48.885 64.9286 46.8929C64.9286 44.9007 66.5435 43.2857 68.5357 43.2857C70.5279 43.2857 72.1429 44.9007 72.1429 46.8929Z" fill="#B5CA42"/>
<path d="M93.7857 46.8929C93.7857 48.885 92.1707 50.5 90.1786 50.5C88.1864 50.5 86.5714 48.885 86.5714 46.8929C86.5714 44.9007 88.1864 43.2857 90.1786 43.2857C92.1707 43.2857 93.7857 44.9007 93.7857 46.8929Z" fill="#B5CA42"/>
<path d="M115.429 46.8929C115.429 48.885 113.814 50.5 111.821 50.5C109.829 50.5 108.214 48.885 108.214 46.8929C108.214 44.9007 109.829 43.2857 111.821 43.2857C113.814 43.2857 115.429 44.9007 115.429 46.8929Z" fill="#B5CA42"/>
<path d="M137.071 46.8929C137.071 48.885 135.456 50.5 133.464 50.5C131.472 50.5 129.857 48.885 129.857 46.8929C129.857 44.9007 131.472 43.2857 133.464 43.2857C135.456 43.2857 137.071 44.9007 137.071 46.8929Z" fill="#B5CA42"/>
<path d="M158.714 46.8929C158.714 48.885 157.099 50.5 155.107 50.5C153.115 50.5 151.5 48.885 151.5 46.8929C151.5 44.9007 153.115 43.2857 155.107 43.2857C157.099 43.2857 158.714 44.9007 158.714 46.8929Z" fill="#B5CA42"/>
<path d="M180.357 46.8929C180.357 48.885 178.742 50.5 176.75 50.5C174.758 50.5 173.143 48.885 173.143 46.8929C173.143 44.9007 174.758 43.2857 176.75 43.2857C178.742 43.2857 180.357 44.9007 180.357 46.8929Z" fill="#B5CA42"/>
<path d="M7.21429 68.5357C7.21429 70.5279 5.59931 72.1429 3.60714 72.1429C1.61497 72.1429 0 70.5279 0 68.5357C0 66.5435 1.61497 64.9286 3.60714 64.9286C5.59931 64.9286 7.21429 66.5435 7.21429 68.5357Z" fill="#B5CA42"/>
<path d="M28.8571 68.5357C28.8571 70.5279 27.2422 72.1429 25.25 72.1429C23.2578 72.1429 21.6429 70.5279 21.6429 68.5357C21.6429 66.5435 23.2578 64.9286 25.25 64.9286C27.2422 64.9286 28.8571 66.5435 28.8571 68.5357Z" fill="#B5CA42"/>
<path d="M50.5 68.5357C50.5 70.5279 48.885 72.1429 46.8929 72.1429C44.9007 72.1429 43.2857 70.5279 43.2857 68.5357C43.2857 66.5435 44.9007 64.9286 46.8929 64.9286C48.885 64.9286 50.5 66.5435 50.5 68.5357Z" fill="#B5CA42"/>
<path d="M72.1429 68.5357C72.1429 70.5279 70.5279 72.1429 68.5357 72.1429C66.5435 72.1429 64.9286 70.5279 64.9286 68.5357C64.9286 66.5435 66.5435 64.9286 68.5357 64.9286C70.5279 64.9286 72.1429 66.5435 72.1429 68.5357Z" fill="#B5CA42"/>
<path d="M93.7857 68.5357C93.7857 70.5279 92.1707 72.1429 90.1786 72.1429C88.1864 72.1429 86.5714 70.5279 86.5714 68.5357C86.5714 66.5435 88.1864 64.9286 90.1786 64.9286C92.1707 64.9286 93.7857 66.5435 93.7857 68.5357Z" fill="#B5CA42"/>
<path d="M115.429 68.5357C115.429 70.5279 113.814 72.1429 111.821 72.1429C109.829 72.1429 108.214 70.5279 108.214 68.5357C108.214 66.5435 109.829 64.9286 111.821 64.9286C113.814 64.9286 115.429 66.5435 115.429 68.5357Z" fill="#B5CA42"/>
<path d="M137.071 68.5357C137.071 70.5279 135.456 72.1429 133.464 72.1429C131.472 72.1429 129.857 70.5279 129.857 68.5357C129.857 66.5435 131.472 64.9286 133.464 64.9286C135.456 64.9286 137.071 66.5435 137.071 68.5357Z" fill="#B5CA42"/>
<path d="M158.714 68.5357C158.714 70.5279 157.099 72.1429 155.107 72.1429C153.115 72.1429 151.5 70.5279 151.5 68.5357C151.5 66.5435 153.115 64.9286 155.107 64.9286C157.099 64.9286 158.714 66.5435 158.714 68.5357Z" fill="#B5CA42"/>
<path d="M180.357 68.5357C180.357 70.5279 178.742 72.1429 176.75 72.1429C174.758 72.1429 173.143 70.5279 173.143 68.5357C173.143 66.5435 174.758 64.9286 176.75 64.9286C178.742 64.9286 180.357 66.5435 180.357 68.5357Z" fill="#B5CA42"/>
<path d="M202 68.5357C202 70.5279 200.385 72.1429 198.393 72.1429C196.401 72.1429 194.786 70.5279 194.786 68.5357C194.786 66.5435 196.401 64.9286 198.393 64.9286C200.385 64.9286 202 66.5435 202 68.5357Z" fill="#B5CA42"/>
<path d="M7.21429 90.1786C7.21429 92.1707 5.59931 93.7857 3.60714 93.7857C1.61497 93.7857 0 92.1707 0 90.1786C0 88.1864 1.61497 86.5714 3.60714 86.5714C5.59931 86.5714 7.21429 88.1864 7.21429 90.1786Z" fill="#B5CA42"/>
<path d="M28.8571 90.1786C28.8571 92.1707 27.2422 93.7857 25.25 93.7857C23.2578 93.7857 21.6429 92.1707 21.6429 90.1786C21.6429 88.1864 23.2578 86.5714 25.25 86.5714C27.2422 86.5714 28.8571 88.1864 28.8571 90.1786Z" fill="#B5CA42"/>
<path d="M50.5 90.1786C50.5 92.1707 48.885 93.7857 46.8929 93.7857C44.9007 93.7857 43.2857 92.1707 43.2857 90.1786C43.2857 88.1864 44.9007 86.5714 46.8929 86.5714C48.885 86.5714 50.5 88.1864 50.5 90.1786Z" fill="#B5CA42"/>
<path d="M72.1429 90.1786C72.1429 92.1707 70.5279 93.7857 68.5357 93.7857C66.5435 93.7857 64.9286 92.1707 64.9286 90.1786C64.9286 88.1864 66.5435 86.5714 68.5357 86.5714C70.5279 86.5714 72.1429 88.1864 72.1429 90.1786Z" fill="#B5CA42"/>
<path d="M93.7857 90.1786C93.7857 92.1707 92.1707 93.7857 90.1786 93.7857C88.1864 93.7857 86.5714 92.1707 86.5714 90.1786C86.5714 88.1864 88.1864 86.5714 90.1786 86.5714C92.1707 86.5714 93.7857 88.1864 93.7857 90.1786Z" fill="#B5CA42"/>
<path d="M115.429 90.1786C115.429 92.1707 113.814 93.7857 111.821 93.7857C109.829 93.7857 108.214 92.1707 108.214 90.1786C108.214 88.1864 109.829 86.5714 111.821 86.5714C113.814 86.5714 115.429 88.1864 115.429 90.1786Z" fill="#B5CA42"/>
<path d="M137.071 90.1786C137.071 92.1707 135.456 93.7857 133.464 93.7857C131.472 93.7857 129.857 92.1707 129.857 90.1786C129.857 88.1864 131.472 86.5714 133.464 86.5714C135.456 86.5714 137.071 88.1864 137.071 90.1786Z" fill="#B5CA42"/>
<path d="M158.714 90.1786C158.714 92.1707 157.099 93.7857 155.107 93.7857C153.115 93.7857 151.5 92.1707 151.5 90.1786C151.5 88.1864 153.115 86.5714 155.107 86.5714C157.099 86.5714 158.714 88.1864 158.714 90.1786Z" fill="#B5CA42"/>
<path d="M180.357 90.1786C180.357 92.1707 178.742 93.7857 176.75 93.7857C174.758 93.7857 173.143 92.1707 173.143 90.1786C173.143 88.1864 174.758 86.5714 176.75 86.5714C178.742 86.5714 180.357 88.1864 180.357 90.1786Z" fill="#B5CA42"/>
<path d="M202 90.1786C202 92.1707 200.385 93.7857 198.393 93.7857C196.401 93.7857 194.786 92.1707 194.786 90.1786C194.786 88.1864 196.401 86.5714 198.393 86.5714C200.385 86.5714 202 88.1864 202 90.1786Z" fill="#B5CA42"/>
<path d="M7.21429 111.821C7.21429 113.814 5.59931 115.429 3.60714 115.429C1.61497 115.429 0 113.814 0 111.821C0 109.829 1.61497 108.214 3.60714 108.214C5.59931 108.214 7.21429 109.829 7.21429 111.821Z" fill="#B5CA42"/>
<path d="M28.8571 111.821C28.8571 113.814 27.2422 115.429 25.25 115.429C23.2578 115.429 21.6429 113.814 21.6429 111.821C21.6429 109.829 23.2578 108.214 25.25 108.214C27.2422 108.214 28.8571 109.829 28.8571 111.821Z" fill="#B5CA42"/>
<path d="M50.5 111.821C50.5 113.814 48.885 115.429 46.8929 115.429C44.9007 115.429 43.2857 113.814 43.2857 111.821C43.2857 109.829 44.9007 108.214 46.8929 108.214C48.885 108.214 50.5 109.829 50.5 111.821Z" fill="#B5CA42"/>
<path d="M72.1429 111.821C72.1429 113.814 70.5279 115.429 68.5357 115.429C66.5435 115.429 64.9286 113.814 64.9286 111.821C64.9286 109.829 66.5435 108.214 68.5357 108.214C70.5279 108.214 72.1429 109.829 72.1429 111.821Z" fill="#B5CA42"/>
<path d="M93.7857 111.821C93.7857 113.814 92.1707 115.429 90.1786 115.429C88.1864 115.429 86.5714 113.814 86.5714 111.821C86.5714 109.829 88.1864 108.214 90.1786 108.214C92.1707 108.214 93.7857 109.829 93.7857 111.821Z" fill="#B5CA42"/>
<path d="M115.429 111.821C115.429 113.814 113.814 115.429 111.821 115.429C109.829 115.429 108.214 113.814 108.214 111.821C108.214 109.829 109.829 108.214 111.821 108.214C113.814 108.214 115.429 109.829 115.429 111.821Z" fill="#B5CA42"/>
<path d="M137.071 111.821C137.071 113.814 135.456 115.429 133.464 115.429C131.472 115.429 129.857 113.814 129.857 111.821C129.857 109.829 131.472 108.214 133.464 108.214C135.456 108.214 137.071 109.829 137.071 111.821Z" fill="#B5CA42"/>
<path d="M158.714 111.821C158.714 113.814 157.099 115.429 155.107 115.429C153.115 115.429 151.5 113.814 151.5 111.821C151.5 109.829 153.115 108.214 155.107 108.214C157.099 108.214 158.714 109.829 158.714 111.821Z" fill="#B5CA42"/>
<path d="M180.357 111.821C180.357 113.814 178.742 115.429 176.75 115.429C174.758 115.429 173.143 113.814 173.143 111.821C173.143 109.829 174.758 108.214 176.75 108.214C178.742 108.214 180.357 109.829 180.357 111.821Z" fill="#B5CA42"/>
<path d="M202 111.821C202 113.814 200.385 115.429 198.393 115.429C196.401 115.429 194.786 113.814 194.786 111.821C194.786 109.829 196.401 108.214 198.393 108.214C200.385 108.214 202 109.829 202 111.821Z" fill="#B5CA42"/>
<path d="M7.21429 133.464C7.21429 135.456 5.59931 137.071 3.60714 137.071C1.61497 137.071 0 135.456 0 133.464C0 131.472 1.61497 129.857 3.60714 129.857C5.59931 129.857 7.21429 131.472 7.21429 133.464Z" fill="#B5CA42"/>
<path d="M28.8571 133.464C28.8571 135.456 27.2422 137.071 25.25 137.071C23.2578 137.071 21.6429 135.456 21.6429 133.464C21.6429 131.472 23.2578 129.857 25.25 129.857C27.2422 129.857 28.8571 131.472 28.8571 133.464Z" fill="#B5CA42"/>
<path d="M50.5 133.464C50.5 135.456 48.885 137.071 46.8929 137.071C44.9007 137.071 43.2857 135.456 43.2857 133.464C43.2857 131.472 44.9007 129.857 46.8929 129.857C48.885 129.857 50.5 131.472 50.5 133.464Z" fill="#B5CA42"/>
<path d="M72.1429 133.464C72.1429 135.456 70.5279 137.071 68.5357 137.071C66.5435 137.071 64.9286 135.456 64.9286 133.464C64.9286 131.472 66.5435 129.857 68.5357 129.857C70.5279 129.857 72.1429 131.472 72.1429 133.464Z" fill="#B5CA42"/>
<path d="M93.7857 133.464C93.7857 135.456 92.1707 137.071 90.1786 137.071C88.1864 137.071 86.5714 135.456 86.5714 133.464C86.5714 131.472 88.1864 129.857 90.1786 129.857C92.1707 129.857 93.7857 131.472 93.7857 133.464Z" fill="#B5CA42"/>
<path d="M115.429 133.464C115.429 135.456 113.814 137.071 111.821 137.071C109.829 137.071 108.214 135.456 108.214 133.464C108.214 131.472 109.829 129.857 111.821 129.857C113.814 129.857 115.429 131.472 115.429 133.464Z" fill="#B5CA42"/>
<path d="M137.071 133.464C137.071 135.456 135.456 137.071 133.464 137.071C131.472 137.071 129.857 135.456 129.857 133.464C129.857 131.472 131.472 129.857 133.464 129.857C135.456 129.857 137.071 131.472 137.071 133.464Z" fill="#B5CA42"/>
<path d="M158.714 133.464C158.714 135.456 157.099 137.071 155.107 137.071C153.115 137.071 151.5 135.456 151.5 133.464C151.5 131.472 153.115 129.857 155.107 129.857C157.099 129.857 158.714 131.472 158.714 133.464Z" fill="#B5CA42"/>
<path d="M180.357 133.464C180.357 135.456 178.742 137.071 176.75 137.071C174.758 137.071 173.143 135.456 173.143 133.464C173.143 131.472 174.758 129.857 176.75 129.857C178.742 129.857 180.357 131.472 180.357 133.464Z" fill="#B5CA42"/>
<path d="M202 133.464C202 135.456 200.385 137.071 198.393 137.071C196.401 137.071 194.786 135.456 194.786 133.464C194.786 131.472 196.401 129.857 198.393 129.857C200.385 129.857 202 131.472 202 133.464Z" fill="#B5CA42"/>
<path d="M28.8571 155.107C28.8571 157.099 27.2422 158.714 25.25 158.714C23.2578 158.714 21.6429 157.099 21.6429 155.107C21.6429 153.115 23.2578 151.5 25.25 151.5C27.2422 151.5 28.8571 153.115 28.8571 155.107Z" fill="#B5CA42"/>
<path d="M50.5 155.107C50.5 157.099 48.885 158.714 46.8929 158.714C44.9007 158.714 43.2857 157.099 43.2857 155.107C43.2857 153.115 44.9007 151.5 46.8929 151.5C48.885 151.5 50.5 153.115 50.5 155.107Z" fill="#B5CA42"/>
<path d="M72.1429 155.107C72.1429 157.099 70.5279 158.714 68.5357 158.714C66.5435 158.714 64.9286 157.099 64.9286 155.107C64.9286 153.115 66.5435 151.5 68.5357 151.5C70.5279 151.5 72.1429 153.115 72.1429 155.107Z" fill="#B5CA42"/>
<path d="M93.7857 155.107C93.7857 157.099 92.1707 158.714 90.1786 158.714C88.1864 158.714 86.5714 157.099 86.5714 155.107C86.5714 153.115 88.1864 151.5 90.1786 151.5C92.1707 151.5 93.7857 153.115 93.7857 155.107Z" fill="#B5CA42"/>
<path d="M115.429 155.107C115.429 157.099 113.814 158.714 111.821 158.714C109.829 158.714 108.214 157.099 108.214 155.107C108.214 153.115 109.829 151.5 111.821 151.5C113.814 151.5 115.429 153.115 115.429 155.107Z" fill="#B5CA42"/>
<path d="M137.071 155.107C137.071 157.099 135.456 158.714 133.464 158.714C131.472 158.714 129.857 157.099 129.857 155.107C129.857 153.115 131.472 151.5 133.464 151.5C135.456 151.5 137.071 153.115 137.071 155.107Z" fill="#B5CA42"/>
<path d="M158.714 155.107C158.714 157.099 157.099 158.714 155.107 158.714C153.115 158.714 151.5 157.099 151.5 155.107C151.5 153.115 153.115 151.5 155.107 151.5C157.099 151.5 158.714 153.115 158.714 155.107Z" fill="#B5CA42"/>
<path d="M180.357 155.107C180.357 157.099 178.742 158.714 176.75 158.714C174.758 158.714 173.143 157.099 173.143 155.107C173.143 153.115 174.758 151.5 176.75 151.5C178.742 151.5 180.357 153.115 180.357 155.107Z" fill="#B5CA42"/>
<path d="M50.5 176.75C50.5 178.742 48.885 180.357 46.8929 180.357C44.9007 180.357 43.2857 178.742 43.2857 176.75C43.2857 174.758 44.9007 173.143 46.8929 173.143C48.885 173.143 50.5 174.758 50.5 176.75Z" fill="#B5CA42"/>
<path d="M72.1429 176.75C72.1429 178.742 70.5279 180.357 68.5357 180.357C66.5435 180.357 64.9286 178.742 64.9286 176.75C64.9286 174.758 66.5435 173.143 68.5357 173.143C70.5279 173.143 72.1429 174.758 72.1429 176.75Z" fill="#B5CA42"/>
<path d="M93.7857 176.75C93.7857 178.742 92.1707 180.357 90.1786 180.357C88.1864 180.357 86.5714 178.742 86.5714 176.75C86.5714 174.758 88.1864 173.143 90.1786 173.143C92.1707 173.143 93.7857 174.758 93.7857 176.75Z" fill="#B5CA42"/>
<path d="M115.429 176.75C115.429 178.742 113.814 180.357 111.821 180.357C109.829 180.357 108.214 178.742 108.214 176.75C108.214 174.758 109.829 173.143 111.821 173.143C113.814 173.143 115.429 174.758 115.429 176.75Z" fill="#B5CA42"/>
<path d="M137.071 176.75C137.071 178.742 135.456 180.357 133.464 180.357C131.472 180.357 129.857 178.742 129.857 176.75C129.857 174.758 131.472 173.143 133.464 173.143C135.456 173.143 137.071 174.758 137.071 176.75Z" fill="#B5CA42"/>
<path d="M158.714 176.75C158.714 178.742 157.099 180.357 155.107 180.357C153.115 180.357 151.5 178.742 151.5 176.75C151.5 174.758 153.115 173.143 155.107 173.143C157.099 173.143 158.714 174.758 158.714 176.75Z" fill="#B5CA42"/>
<path d="M72.1429 198.393C72.1429 200.385 70.5279 202 68.5357 202C66.5435 202 64.9286 200.385 64.9286 198.393C64.9286 196.401 66.5435 194.786 68.5357 194.786C70.5279 194.786 72.1429 196.401 72.1429 198.393Z" fill="#B5CA42"/>
<path d="M93.7857 198.393C93.7857 200.385 92.1707 202 90.1786 202C88.1864 202 86.5714 200.385 86.5714 198.393C86.5714 196.401 88.1864 194.786 90.1786 194.786C92.1707 194.786 93.7857 196.401 93.7857 198.393Z" fill="#B5CA42"/>
<path d="M115.429 198.393C115.429 200.385 113.814 202 111.821 202C109.829 202 108.214 200.385 108.214 198.393C108.214 196.401 109.829 194.786 111.821 194.786C113.814 194.786 115.429 196.401 115.429 198.393Z" fill="#B5CA42"/>
<path d="M137.071 198.393C137.071 200.385 135.456 202 133.464 202C131.472 202 129.857 200.385 129.857 198.393C129.857 196.401 131.472 194.786 133.464 194.786C135.456 194.786 137.071 196.401 137.071 198.393Z" fill="#B5CA42"/>
</svg>
