<svg width="32" height="32" viewBox="0 0 32 32" fill="none" xmlns="http://www.w3.org/2000/svg">
<circle cx="16" cy="16" r="16" fill="white"/>
<path fill-rule="evenodd" clip-rule="evenodd" d="M16.0608 15.8386C15.7803 15.8386 15.5586 16.0418 15.5586 16.2988C15.5586 16.5498 15.7803 16.759 16.0608 16.759H19.9737V19.6158C19.9737 21.08 18.6759 22.2753 17.0716 22.2753H13.8956C12.2978 22.2753 11 21.086 11 19.6218V12.9818C11 11.5116 12.3043 10.3223 13.9021 10.3223H17.0846C18.6759 10.3223 19.9737 11.5116 19.9737 12.9758V15.8386H16.0608ZM22.301 14.231L24.1726 15.9702C24.2688 16.0599 24.3201 16.1734 24.3201 16.2989C24.3201 16.4185 24.2688 16.538 24.1726 16.6217L22.301 18.3608C22.2048 18.4505 22.0766 18.4983 21.9548 18.4983C21.8266 18.4983 21.6984 18.4505 21.6023 18.3608C21.41 18.1815 21.41 17.8887 21.6023 17.7094L22.6279 16.7591H19.9742V15.8387H22.6279L21.6023 14.8885C21.41 14.7092 21.41 14.4163 21.6023 14.237C21.7946 14.0517 22.1087 14.0517 22.301 14.231Z" fill="#1E2B62"/>
</svg>
