<svg width="216" height="65" viewBox="0 0 216 65" fill="none" xmlns="http://www.w3.org/2000/svg">
<g clip-path="url(#clip0_392_65)">
<path d="M16.6041 11.8864C11.5178 11.328 9.65419 10.879 9.65419 9.2995C9.65419 7.74691 11.9236 7.21601 15.8703 7.21601C18.4464 7.21748 21.0128 7.53306 23.5128 8.15581C24.5275 8.39916 25.5239 8.71319 26.4949 9.09561L30.5445 3.1796C29.3532 2.52767 28.099 1.99846 26.8012 1.60009C23.1235 0.487734 19.2971 -0.0517456 15.456 0.000536253C4.97369 0.000536253 0.924674 4.18125 0.924103 9.30006C0.924103 14.0586 3.58039 17.701 14.9256 18.9135C21.7121 19.6694 23.1865 19.9145 23.1865 21.3921C23.1865 23.278 20.1771 23.8089 14.8428 23.8083C12.1965 23.8253 9.56132 23.4653 7.01619 22.7391C6.00017 22.4639 5.00745 22.1087 4.04731 21.6767L-0.00170898 27.5996C1.13284 28.3145 2.34841 28.8913 3.61925 29.3177C6.09209 30.2031 9.89651 31.0198 15.2497 31.0198C24.985 31.0198 31.9143 28.4426 31.9149 21.3938C31.9166 15.5706 27.7453 13.1332 16.6041 11.8864Z" fill="#AEC836"/>
<path d="M67.9325 11.8704C67.9365 4.86508 63.3383 0.826378 55.1054 0.825806H35.4153V30.2054L44.0602 30.2026L44.0814 22.9092H55.0991C63.3349 22.9092 67.9365 18.8699 67.9325 11.8704ZM55.1031 15.676L44.0648 15.6714V8.05446H55.1043C57.9857 8.05446 59.207 9.61678 59.2059 11.8715C59.2047 14.1262 57.9857 15.6708 55.1031 15.6765V15.676Z" fill="#AEC836"/>
<path d="M100.403 20.7112C98.7926 23.0163 96.5295 24.7849 93.9061 25.7888L96.3104 30.2055H105.6L100.403 20.7112ZM89.5056 0.822388L82.39 0.828103L68.1936 26.7509C74.8292 20.6407 81.5356 19.642 87.3168 18.7806C91.3315 18.1856 94.7931 17.6707 97.6459 15.6812L89.5056 0.822388Z" fill="#AEC836"/>
<path d="M191.305 21.0737L194.519 18.4049L205.429 30.1694H216.002L200.487 13.4694L215.803 0.793179H204.493L191.306 11.7135V0.792603H182.656V30.1694H191.305L191.305 21.0737Z" fill="#AEC836"/>
<path d="M178.236 30.297L172.154 19.5342C174.626 18.6574 177.983 16.2125 177.978 11.4167C177.978 3.79978 172.333 0.95459 164.734 0.95459H145.456L145.451 30.297H154.104L154.099 21.2557H163.833L168.945 30.297L168.966 30.3342L178.251 30.3291L178.236 30.297ZM164.734 14.6622H154.098L154.104 8.18725H164.734C167.859 8.1924 169.249 9.13278 169.249 11.4196C169.25 13.735 167.859 14.6588 164.734 14.6588V14.6622Z" fill="#AEC836"/>
<path d="M100.922 12.7529C92.8991 27.5246 75.4155 10.6339 60.6162 40.3297C81.7659 20.6453 98.026 32.9705 100.922 12.7529Z" fill="#2AAFE5"/>
<path d="M141.587 30.3286L132.302 30.3337L132.281 30.2965H141.572L141.587 30.3286Z" fill="#AEC836"/>
<path d="M141.681 50.6446V34.8036L133.036 34.807L133.033 50.6405C133.033 55.0887 131.147 57.7925 124.982 57.7884C118.816 57.7844 117.129 55.0847 117.129 50.6434L117.132 34.8099L117.128 21.1275H126.864L131.995 30.2054H141.278L135.18 19.4099C137.656 18.5354 141.012 16.0883 141.009 11.2947C141.009 3.6778 135.366 0.831468 127.764 0.830322H108.482V34.8076L108.486 50.6417C108.48 51.2184 108.505 51.7716 108.538 52.3197C109.117 60.3948 114.007 64.9999 124.983 65.0028C136.918 65.0005 141.682 59.7614 141.681 50.6446ZM117.127 14.5339L117.132 8.05782H127.761C130.89 8.05782 132.281 8.99821 132.281 11.2879C132.278 13.6045 130.886 14.5282 127.767 14.5276L117.127 14.5339Z" fill="#AEC836"/>
<path d="M178.93 45.8522C178.93 38.8458 174.329 34.8071 166.096 34.8065H146.412L146.406 64.1861L155.056 64.1907L155.08 56.8991L166.099 56.8945C174.331 56.8905 178.926 52.8575 178.93 45.8522ZM166.093 49.6567L155.055 49.6521V42.0352L166.093 42.0398C168.974 42.0398 170.197 43.5952 170.202 45.8517C170.208 48.1081 168.975 49.6578 166.093 49.6567Z" fill="#AEC836"/>
</g>
<defs>
<clipPath id="clip0_392_65">
<rect width="216" height="65" fill="white"/>
</clipPath>
</defs>
</svg>
