<svg width="258" height="258" viewBox="0 0 258 258" fill="none" xmlns="http://www.w3.org/2000/svg">
<path d="M248.787 60.0024C249.501 61.24 250.197 62.4896 250.874 63.751C249.645 62.947 248.824 61.5718 248.787 60.0024Z" fill="#4FAEE5"/>
<path d="M223.561 28.1953C225.708 30.21 227.79 32.2925 229.805 34.4393C229.026 35.8792 227.502 36.8571 225.75 36.8571C223.206 36.8571 221.143 34.7945 221.143 32.25C221.143 30.498 222.121 28.9744 223.561 28.1953Z" fill="#4FAEE5"/>
<path d="M194.249 7.12618C195.51 7.8029 196.76 8.49864 197.998 9.213C196.428 9.17638 195.053 8.35504 194.249 7.12618Z" fill="#4FAEE5"/>
<path d="M60.0024 9.213C61.24 8.49864 62.4896 7.8029 63.751 7.12618C62.947 8.35504 61.5718 9.17638 60.0024 9.213Z" fill="#4FAEE5"/>
<path d="M28.1953 34.4393C30.21 32.2925 32.2925 30.21 34.4393 28.1953C35.8792 28.9744 36.8571 30.498 36.8571 32.25C36.8571 34.7945 34.7945 36.8571 32.25 36.8571C30.498 36.8571 28.9744 35.8792 28.1953 34.4393Z" fill="#4FAEE5"/>
<path d="M7.12618 63.751C7.8029 62.4896 8.49864 61.24 9.213 60.0024C9.17638 61.5718 8.35504 62.947 7.12618 63.751Z" fill="#4FAEE5"/>
<path d="M250.874 194.249C250.197 195.51 249.501 196.76 248.787 197.998C248.824 196.428 249.645 195.053 250.874 194.249Z" fill="#4FAEE5"/>
<path d="M229.805 223.561C229.026 222.121 227.502 221.143 225.75 221.143C223.206 221.143 221.143 223.206 221.143 225.75C221.143 227.502 222.121 229.026 223.561 229.805C225.708 227.79 227.79 225.708 229.805 223.561Z" fill="#4FAEE5"/>
<path d="M197.998 248.787C196.428 248.824 195.053 249.645 194.249 250.874C195.51 250.197 196.76 249.501 197.998 248.787Z" fill="#4FAEE5"/>
<path d="M63.751 250.874C62.947 249.645 61.5718 248.824 60.0024 248.787C61.24 249.501 62.4896 250.197 63.751 250.874Z" fill="#4FAEE5"/>
<path d="M34.4393 229.805C35.8792 229.026 36.8571 227.502 36.8571 225.75C36.8571 223.206 34.7945 221.143 32.25 221.143C30.498 221.143 28.9744 222.121 28.1953 223.561C30.21 225.708 32.2925 227.79 34.4393 229.805Z" fill="#4FAEE5"/>
<path d="M9.213 197.998C9.17638 196.428 8.35504 195.053 7.12618 194.249C7.8029 195.51 8.49864 196.76 9.213 197.998Z" fill="#4FAEE5"/>
<path d="M92.1429 4.60714C92.1429 7.1516 90.0802 9.21429 87.5357 9.21429C84.9913 9.21429 82.9286 7.1516 82.9286 4.60714C82.9286 2.06269 84.9913 0 87.5357 0C90.0802 0 92.1429 2.06269 92.1429 4.60714Z" fill="#4FAEE5"/>
<path d="M119.786 4.60714C119.786 7.1516 117.723 9.21429 115.179 9.21429C112.634 9.21429 110.571 7.1516 110.571 4.60714C110.571 2.06269 112.634 0 115.179 0C117.723 0 119.786 2.06269 119.786 4.60714Z" fill="#4FAEE5"/>
<path d="M147.429 4.60714C147.429 7.1516 145.366 9.21429 142.821 9.21429C140.277 9.21429 138.214 7.1516 138.214 4.60714C138.214 2.06269 140.277 0 142.821 0C145.366 0 147.429 2.06269 147.429 4.60714Z" fill="#4FAEE5"/>
<path d="M175.071 4.60714C175.071 7.1516 173.009 9.21429 170.464 9.21429C167.92 9.21429 165.857 7.1516 165.857 4.60714C165.857 2.06269 167.92 0 170.464 0C173.009 0 175.071 2.06269 175.071 4.60714Z" fill="#4FAEE5"/>
<path d="M64.5 32.25C64.5 34.7945 62.4373 36.8571 59.8929 36.8571C57.3484 36.8571 55.2857 34.7945 55.2857 32.25C55.2857 29.7055 57.3484 27.6429 59.8929 27.6429C62.4373 27.6429 64.5 29.7055 64.5 32.25Z" fill="#4FAEE5"/>
<path d="M92.1429 32.25C92.1429 34.7945 90.0802 36.8571 87.5357 36.8571C84.9913 36.8571 82.9286 34.7945 82.9286 32.25C82.9286 29.7055 84.9913 27.6429 87.5357 27.6429C90.0802 27.6429 92.1429 29.7055 92.1429 32.25Z" fill="#4FAEE5"/>
<path d="M119.786 32.25C119.786 34.7945 117.723 36.8571 115.179 36.8571C112.634 36.8571 110.571 34.7945 110.571 32.25C110.571 29.7055 112.634 27.6429 115.179 27.6429C117.723 27.6429 119.786 29.7055 119.786 32.25Z" fill="#4FAEE5"/>
<path d="M147.429 32.25C147.429 34.7945 145.366 36.8571 142.821 36.8571C140.277 36.8571 138.214 34.7945 138.214 32.25C138.214 29.7055 140.277 27.6429 142.821 27.6429C145.366 27.6429 147.429 29.7055 147.429 32.25Z" fill="#4FAEE5"/>
<path d="M175.071 32.25C175.071 34.7945 173.009 36.8571 170.464 36.8571C167.92 36.8571 165.857 34.7945 165.857 32.25C165.857 29.7055 167.92 27.6429 170.464 27.6429C173.009 27.6429 175.071 29.7055 175.071 32.25Z" fill="#4FAEE5"/>
<path d="M202.714 32.25C202.714 34.7945 200.652 36.8571 198.107 36.8571C195.563 36.8571 193.5 34.7945 193.5 32.25C193.5 29.7055 195.563 27.6429 198.107 27.6429C200.652 27.6429 202.714 29.7055 202.714 32.25Z" fill="#4FAEE5"/>
<path d="M36.8571 59.8929C36.8571 62.4373 34.7945 64.5 32.25 64.5C29.7055 64.5 27.6429 62.4373 27.6429 59.8929C27.6429 57.3484 29.7055 55.2857 32.25 55.2857C34.7945 55.2857 36.8571 57.3484 36.8571 59.8929Z" fill="#4FAEE5"/>
<path d="M64.5 59.8929C64.5 62.4373 62.4373 64.5 59.8929 64.5C57.3484 64.5 55.2857 62.4373 55.2857 59.8929C55.2857 57.3484 57.3484 55.2857 59.8929 55.2857C62.4373 55.2857 64.5 57.3484 64.5 59.8929Z" fill="#4FAEE5"/>
<path d="M92.1429 59.8929C92.1429 62.4373 90.0802 64.5 87.5357 64.5C84.9913 64.5 82.9286 62.4373 82.9286 59.8929C82.9286 57.3484 84.9913 55.2857 87.5357 55.2857C90.0802 55.2857 92.1429 57.3484 92.1429 59.8929Z" fill="#4FAEE5"/>
<path d="M119.786 59.8929C119.786 62.4373 117.723 64.5 115.179 64.5C112.634 64.5 110.571 62.4373 110.571 59.8929C110.571 57.3484 112.634 55.2857 115.179 55.2857C117.723 55.2857 119.786 57.3484 119.786 59.8929Z" fill="#4FAEE5"/>
<path d="M147.429 59.8929C147.429 62.4373 145.366 64.5 142.821 64.5C140.277 64.5 138.214 62.4373 138.214 59.8929C138.214 57.3484 140.277 55.2857 142.821 55.2857C145.366 55.2857 147.429 57.3484 147.429 59.8929Z" fill="#4FAEE5"/>
<path d="M175.071 59.8929C175.071 62.4373 173.009 64.5 170.464 64.5C167.92 64.5 165.857 62.4373 165.857 59.8929C165.857 57.3484 167.92 55.2857 170.464 55.2857C173.009 55.2857 175.071 57.3484 175.071 59.8929Z" fill="#4FAEE5"/>
<path d="M202.714 59.8929C202.714 62.4373 200.652 64.5 198.107 64.5C195.563 64.5 193.5 62.4373 193.5 59.8929C193.5 57.3484 195.563 55.2857 198.107 55.2857C200.652 55.2857 202.714 57.3484 202.714 59.8929Z" fill="#4FAEE5"/>
<path d="M230.357 59.8929C230.357 62.4373 228.294 64.5 225.75 64.5C223.206 64.5 221.143 62.4373 221.143 59.8929C221.143 57.3484 223.206 55.2857 225.75 55.2857C228.294 55.2857 230.357 57.3484 230.357 59.8929Z" fill="#4FAEE5"/>
<path d="M9.21429 87.5357C9.21429 90.0802 7.1516 92.1429 4.60714 92.1429C2.06269 92.1429 0 90.0802 0 87.5357C0 84.9913 2.06269 82.9286 4.60714 82.9286C7.1516 82.9286 9.21429 84.9913 9.21429 87.5357Z" fill="#4FAEE5"/>
<path d="M36.8571 87.5357C36.8571 90.0802 34.7945 92.1429 32.25 92.1429C29.7055 92.1429 27.6429 90.0802 27.6429 87.5357C27.6429 84.9913 29.7055 82.9286 32.25 82.9286C34.7945 82.9286 36.8571 84.9913 36.8571 87.5357Z" fill="#4FAEE5"/>
<path d="M64.5 87.5357C64.5 90.0802 62.4373 92.1429 59.8929 92.1429C57.3484 92.1429 55.2857 90.0802 55.2857 87.5357C55.2857 84.9913 57.3484 82.9286 59.8929 82.9286C62.4373 82.9286 64.5 84.9913 64.5 87.5357Z" fill="#4FAEE5"/>
<path d="M92.1429 87.5357C92.1429 90.0802 90.0802 92.1429 87.5357 92.1429C84.9913 92.1429 82.9286 90.0802 82.9286 87.5357C82.9286 84.9913 84.9913 82.9286 87.5357 82.9286C90.0802 82.9286 92.1429 84.9913 92.1429 87.5357Z" fill="#4FAEE5"/>
<path d="M119.786 87.5357C119.786 90.0802 117.723 92.1429 115.179 92.1429C112.634 92.1429 110.571 90.0802 110.571 87.5357C110.571 84.9913 112.634 82.9286 115.179 82.9286C117.723 82.9286 119.786 84.9913 119.786 87.5357Z" fill="#4FAEE5"/>
<path d="M147.429 87.5357C147.429 90.0802 145.366 92.1429 142.821 92.1429C140.277 92.1429 138.214 90.0802 138.214 87.5357C138.214 84.9913 140.277 82.9286 142.821 82.9286C145.366 82.9286 147.429 84.9913 147.429 87.5357Z" fill="#4FAEE5"/>
<path d="M175.071 87.5357C175.071 90.0802 173.009 92.1429 170.464 92.1429C167.92 92.1429 165.857 90.0802 165.857 87.5357C165.857 84.9913 167.92 82.9286 170.464 82.9286C173.009 82.9286 175.071 84.9913 175.071 87.5357Z" fill="#4FAEE5"/>
<path d="M202.714 87.5357C202.714 90.0802 200.652 92.1429 198.107 92.1429C195.563 92.1429 193.5 90.0802 193.5 87.5357C193.5 84.9913 195.563 82.9286 198.107 82.9286C200.652 82.9286 202.714 84.9913 202.714 87.5357Z" fill="#4FAEE5"/>
<path d="M230.357 87.5357C230.357 90.0802 228.294 92.1429 225.75 92.1429C223.206 92.1429 221.143 90.0802 221.143 87.5357C221.143 84.9913 223.206 82.9286 225.75 82.9286C228.294 82.9286 230.357 84.9913 230.357 87.5357Z" fill="#4FAEE5"/>
<path d="M258 87.5357C258 90.0802 255.937 92.1429 253.393 92.1429C250.848 92.1429 248.786 90.0802 248.786 87.5357C248.786 84.9913 250.848 82.9286 253.393 82.9286C255.937 82.9286 258 84.9913 258 87.5357Z" fill="#4FAEE5"/>
<path d="M9.21429 115.179C9.21429 117.723 7.1516 119.786 4.60714 119.786C2.06269 119.786 0 117.723 0 115.179C0 112.634 2.06269 110.571 4.60714 110.571C7.1516 110.571 9.21429 112.634 9.21429 115.179Z" fill="#4FAEE5"/>
<path d="M36.8571 115.179C36.8571 117.723 34.7945 119.786 32.25 119.786C29.7055 119.786 27.6429 117.723 27.6429 115.179C27.6429 112.634 29.7055 110.571 32.25 110.571C34.7945 110.571 36.8571 112.634 36.8571 115.179Z" fill="#4FAEE5"/>
<path d="M64.5 115.179C64.5 117.723 62.4373 119.786 59.8929 119.786C57.3484 119.786 55.2857 117.723 55.2857 115.179C55.2857 112.634 57.3484 110.571 59.8929 110.571C62.4373 110.571 64.5 112.634 64.5 115.179Z" fill="#4FAEE5"/>
<path d="M92.1429 115.179C92.1429 117.723 90.0802 119.786 87.5357 119.786C84.9913 119.786 82.9286 117.723 82.9286 115.179C82.9286 112.634 84.9913 110.571 87.5357 110.571C90.0802 110.571 92.1429 112.634 92.1429 115.179Z" fill="#4FAEE5"/>
<path d="M119.786 115.179C119.786 117.723 117.723 119.786 115.179 119.786C112.634 119.786 110.571 117.723 110.571 115.179C110.571 112.634 112.634 110.571 115.179 110.571C117.723 110.571 119.786 112.634 119.786 115.179Z" fill="#4FAEE5"/>
<path d="M147.429 115.179C147.429 117.723 145.366 119.786 142.821 119.786C140.277 119.786 138.214 117.723 138.214 115.179C138.214 112.634 140.277 110.571 142.821 110.571C145.366 110.571 147.429 112.634 147.429 115.179Z" fill="#4FAEE5"/>
<path d="M175.071 115.179C175.071 117.723 173.009 119.786 170.464 119.786C167.92 119.786 165.857 117.723 165.857 115.179C165.857 112.634 167.92 110.571 170.464 110.571C173.009 110.571 175.071 112.634 175.071 115.179Z" fill="#4FAEE5"/>
<path d="M202.714 115.179C202.714 117.723 200.652 119.786 198.107 119.786C195.563 119.786 193.5 117.723 193.5 115.179C193.5 112.634 195.563 110.571 198.107 110.571C200.652 110.571 202.714 112.634 202.714 115.179Z" fill="#4FAEE5"/>
<path d="M230.357 115.179C230.357 117.723 228.294 119.786 225.75 119.786C223.206 119.786 221.143 117.723 221.143 115.179C221.143 112.634 223.206 110.571 225.75 110.571C228.294 110.571 230.357 112.634 230.357 115.179Z" fill="#4FAEE5"/>
<path d="M258 115.179C258 117.723 255.937 119.786 253.393 119.786C250.848 119.786 248.786 117.723 248.786 115.179C248.786 112.634 250.848 110.571 253.393 110.571C255.937 110.571 258 112.634 258 115.179Z" fill="#4FAEE5"/>
<path d="M9.21429 142.821C9.21429 145.366 7.1516 147.429 4.60714 147.429C2.06269 147.429 0 145.366 0 142.821C0 140.277 2.06269 138.214 4.60714 138.214C7.1516 138.214 9.21429 140.277 9.21429 142.821Z" fill="#4FAEE5"/>
<path d="M36.8571 142.821C36.8571 145.366 34.7945 147.429 32.25 147.429C29.7055 147.429 27.6429 145.366 27.6429 142.821C27.6429 140.277 29.7055 138.214 32.25 138.214C34.7945 138.214 36.8571 140.277 36.8571 142.821Z" fill="#4FAEE5"/>
<path d="M64.5 142.821C64.5 145.366 62.4373 147.429 59.8929 147.429C57.3484 147.429 55.2857 145.366 55.2857 142.821C55.2857 140.277 57.3484 138.214 59.8929 138.214C62.4373 138.214 64.5 140.277 64.5 142.821Z" fill="#4FAEE5"/>
<path d="M92.1429 142.821C92.1429 145.366 90.0802 147.429 87.5357 147.429C84.9913 147.429 82.9286 145.366 82.9286 142.821C82.9286 140.277 84.9913 138.214 87.5357 138.214C90.0802 138.214 92.1429 140.277 92.1429 142.821Z" fill="#4FAEE5"/>
<path d="M119.786 142.821C119.786 145.366 117.723 147.429 115.179 147.429C112.634 147.429 110.571 145.366 110.571 142.821C110.571 140.277 112.634 138.214 115.179 138.214C117.723 138.214 119.786 140.277 119.786 142.821Z" fill="#4FAEE5"/>
<path d="M147.429 142.821C147.429 145.366 145.366 147.429 142.821 147.429C140.277 147.429 138.214 145.366 138.214 142.821C138.214 140.277 140.277 138.214 142.821 138.214C145.366 138.214 147.429 140.277 147.429 142.821Z" fill="#4FAEE5"/>
<path d="M175.071 142.821C175.071 145.366 173.009 147.429 170.464 147.429C167.92 147.429 165.857 145.366 165.857 142.821C165.857 140.277 167.92 138.214 170.464 138.214C173.009 138.214 175.071 140.277 175.071 142.821Z" fill="#4FAEE5"/>
<path d="M202.714 142.821C202.714 145.366 200.652 147.429 198.107 147.429C195.563 147.429 193.5 145.366 193.5 142.821C193.5 140.277 195.563 138.214 198.107 138.214C200.652 138.214 202.714 140.277 202.714 142.821Z" fill="#4FAEE5"/>
<path d="M230.357 142.821C230.357 145.366 228.294 147.429 225.75 147.429C223.206 147.429 221.143 145.366 221.143 142.821C221.143 140.277 223.206 138.214 225.75 138.214C228.294 138.214 230.357 140.277 230.357 142.821Z" fill="#4FAEE5"/>
<path d="M258 142.821C258 145.366 255.937 147.429 253.393 147.429C250.848 147.429 248.786 145.366 248.786 142.821C248.786 140.277 250.848 138.214 253.393 138.214C255.937 138.214 258 140.277 258 142.821Z" fill="#4FAEE5"/>
<path d="M9.21429 170.464C9.21429 173.009 7.1516 175.071 4.60714 175.071C2.06269 175.071 0 173.009 0 170.464C0 167.92 2.06269 165.857 4.60714 165.857C7.1516 165.857 9.21429 167.92 9.21429 170.464Z" fill="#4FAEE5"/>
<path d="M36.8571 170.464C36.8571 173.009 34.7945 175.071 32.25 175.071C29.7055 175.071 27.6429 173.009 27.6429 170.464C27.6429 167.92 29.7055 165.857 32.25 165.857C34.7945 165.857 36.8571 167.92 36.8571 170.464Z" fill="#4FAEE5"/>
<path d="M64.5 170.464C64.5 173.009 62.4373 175.071 59.8929 175.071C57.3484 175.071 55.2857 173.009 55.2857 170.464C55.2857 167.92 57.3484 165.857 59.8929 165.857C62.4373 165.857 64.5 167.92 64.5 170.464Z" fill="#4FAEE5"/>
<path d="M92.1429 170.464C92.1429 173.009 90.0802 175.071 87.5357 175.071C84.9913 175.071 82.9286 173.009 82.9286 170.464C82.9286 167.92 84.9913 165.857 87.5357 165.857C90.0802 165.857 92.1429 167.92 92.1429 170.464Z" fill="#4FAEE5"/>
<path d="M119.786 170.464C119.786 173.009 117.723 175.071 115.179 175.071C112.634 175.071 110.571 173.009 110.571 170.464C110.571 167.92 112.634 165.857 115.179 165.857C117.723 165.857 119.786 167.92 119.786 170.464Z" fill="#4FAEE5"/>
<path d="M147.429 170.464C147.429 173.009 145.366 175.071 142.821 175.071C140.277 175.071 138.214 173.009 138.214 170.464C138.214 167.92 140.277 165.857 142.821 165.857C145.366 165.857 147.429 167.92 147.429 170.464Z" fill="#4FAEE5"/>
<path d="M175.071 170.464C175.071 173.009 173.009 175.071 170.464 175.071C167.92 175.071 165.857 173.009 165.857 170.464C165.857 167.92 167.92 165.857 170.464 165.857C173.009 165.857 175.071 167.92 175.071 170.464Z" fill="#4FAEE5"/>
<path d="M202.714 170.464C202.714 173.009 200.652 175.071 198.107 175.071C195.563 175.071 193.5 173.009 193.5 170.464C193.5 167.92 195.563 165.857 198.107 165.857C200.652 165.857 202.714 167.92 202.714 170.464Z" fill="#4FAEE5"/>
<path d="M230.357 170.464C230.357 173.009 228.294 175.071 225.75 175.071C223.206 175.071 221.143 173.009 221.143 170.464C221.143 167.92 223.206 165.857 225.75 165.857C228.294 165.857 230.357 167.92 230.357 170.464Z" fill="#4FAEE5"/>
<path d="M258 170.464C258 173.009 255.937 175.071 253.393 175.071C250.848 175.071 248.786 173.009 248.786 170.464C248.786 167.92 250.848 165.857 253.393 165.857C255.937 165.857 258 167.92 258 170.464Z" fill="#4FAEE5"/>
<path d="M36.8571 198.107C36.8571 200.652 34.7945 202.714 32.25 202.714C29.7055 202.714 27.6429 200.652 27.6429 198.107C27.6429 195.563 29.7055 193.5 32.25 193.5C34.7945 193.5 36.8571 195.563 36.8571 198.107Z" fill="#4FAEE5"/>
<path d="M64.5 198.107C64.5 200.652 62.4373 202.714 59.8929 202.714C57.3484 202.714 55.2857 200.652 55.2857 198.107C55.2857 195.563 57.3484 193.5 59.8929 193.5C62.4373 193.5 64.5 195.563 64.5 198.107Z" fill="#4FAEE5"/>
<path d="M92.1429 198.107C92.1429 200.652 90.0802 202.714 87.5357 202.714C84.9913 202.714 82.9286 200.652 82.9286 198.107C82.9286 195.563 84.9913 193.5 87.5357 193.5C90.0802 193.5 92.1429 195.563 92.1429 198.107Z" fill="#4FAEE5"/>
<path d="M119.786 198.107C119.786 200.652 117.723 202.714 115.179 202.714C112.634 202.714 110.571 200.652 110.571 198.107C110.571 195.563 112.634 193.5 115.179 193.5C117.723 193.5 119.786 195.563 119.786 198.107Z" fill="#4FAEE5"/>
<path d="M147.429 198.107C147.429 200.652 145.366 202.714 142.821 202.714C140.277 202.714 138.214 200.652 138.214 198.107C138.214 195.563 140.277 193.5 142.821 193.5C145.366 193.5 147.429 195.563 147.429 198.107Z" fill="#4FAEE5"/>
<path d="M175.071 198.107C175.071 200.652 173.009 202.714 170.464 202.714C167.92 202.714 165.857 200.652 165.857 198.107C165.857 195.563 167.92 193.5 170.464 193.5C173.009 193.5 175.071 195.563 175.071 198.107Z" fill="#4FAEE5"/>
<path d="M202.714 198.107C202.714 200.652 200.652 202.714 198.107 202.714C195.563 202.714 193.5 200.652 193.5 198.107C193.5 195.563 195.563 193.5 198.107 193.5C200.652 193.5 202.714 195.563 202.714 198.107Z" fill="#4FAEE5"/>
<path d="M230.357 198.107C230.357 200.652 228.294 202.714 225.75 202.714C223.206 202.714 221.143 200.652 221.143 198.107C221.143 195.563 223.206 193.5 225.75 193.5C228.294 193.5 230.357 195.563 230.357 198.107Z" fill="#4FAEE5"/>
<path d="M64.5 225.75C64.5 228.294 62.4373 230.357 59.8929 230.357C57.3484 230.357 55.2857 228.294 55.2857 225.75C55.2857 223.206 57.3484 221.143 59.8929 221.143C62.4373 221.143 64.5 223.206 64.5 225.75Z" fill="#4FAEE5"/>
<path d="M92.1429 225.75C92.1429 228.294 90.0802 230.357 87.5357 230.357C84.9913 230.357 82.9286 228.294 82.9286 225.75C82.9286 223.206 84.9913 221.143 87.5357 221.143C90.0802 221.143 92.1429 223.206 92.1429 225.75Z" fill="#4FAEE5"/>
<path d="M119.786 225.75C119.786 228.294 117.723 230.357 115.179 230.357C112.634 230.357 110.571 228.294 110.571 225.75C110.571 223.206 112.634 221.143 115.179 221.143C117.723 221.143 119.786 223.206 119.786 225.75Z" fill="#4FAEE5"/>
<path d="M147.429 225.75C147.429 228.294 145.366 230.357 142.821 230.357C140.277 230.357 138.214 228.294 138.214 225.75C138.214 223.206 140.277 221.143 142.821 221.143C145.366 221.143 147.429 223.206 147.429 225.75Z" fill="#4FAEE5"/>
<path d="M175.071 225.75C175.071 228.294 173.009 230.357 170.464 230.357C167.92 230.357 165.857 228.294 165.857 225.75C165.857 223.206 167.92 221.143 170.464 221.143C173.009 221.143 175.071 223.206 175.071 225.75Z" fill="#4FAEE5"/>
<path d="M202.714 225.75C202.714 228.294 200.652 230.357 198.107 230.357C195.563 230.357 193.5 228.294 193.5 225.75C193.5 223.206 195.563 221.143 198.107 221.143C200.652 221.143 202.714 223.206 202.714 225.75Z" fill="#4FAEE5"/>
<path d="M92.1429 253.393C92.1429 255.937 90.0802 258 87.5357 258C84.9913 258 82.9286 255.937 82.9286 253.393C82.9286 250.848 84.9913 248.786 87.5357 248.786C90.0802 248.786 92.1429 250.848 92.1429 253.393Z" fill="#4FAEE5"/>
<path d="M119.786 253.393C119.786 255.937 117.723 258 115.179 258C112.634 258 110.571 255.937 110.571 253.393C110.571 250.848 112.634 248.786 115.179 248.786C117.723 248.786 119.786 250.848 119.786 253.393Z" fill="#4FAEE5"/>
<path d="M147.429 253.393C147.429 255.937 145.366 258 142.821 258C140.277 258 138.214 255.937 138.214 253.393C138.214 250.848 140.277 248.786 142.821 248.786C145.366 248.786 147.429 250.848 147.429 253.393Z" fill="#4FAEE5"/>
<path d="M175.071 253.393C175.071 255.937 173.009 258 170.464 258C167.92 258 165.857 255.937 165.857 253.393C165.857 250.848 167.92 248.786 170.464 248.786C173.009 248.786 175.071 250.848 175.071 253.393Z" fill="#4FAEE5"/>
</svg>
