<svg width="179" height="133" viewBox="0 0 179 133" fill="none" xmlns="http://www.w3.org/2000/svg">
<path d="M10.4986 6.83378L8.66129 -0.00012207L6.82395 6.83378L0 8.67379L6.82395 10.5138L8.66129 17.3477L10.4986 10.5138L17.3226 8.67379L10.4986 6.83378Z" fill="#E08330" fill-opacity="0.61"/>
<path d="M33.5954 6.83378L31.7581 -0.00012207L29.9207 6.83378L23.0968 8.67379L29.9207 10.5138L31.7581 17.3477L33.5954 10.5138L40.4194 8.67379L33.5954 6.83378Z" fill="#E08330" fill-opacity="0.61"/>
<path d="M54.8548 -0.00012207L56.6922 6.83378L63.5161 8.67379L56.6922 10.5138L54.8548 17.3477L53.0175 10.5138L46.1935 8.67379L53.0175 6.83378L54.8548 -0.00012207Z" fill="#E08330" fill-opacity="0.61"/>
<path d="M79.7889 6.83378L77.9516 -0.00012207L76.1143 6.83378L69.2903 8.67379L76.1143 10.5138L77.9516 17.3477L79.7889 10.5138L86.6129 8.67379L79.7889 6.83378Z" fill="#E08330" fill-opacity="0.61"/>
<path d="M101.048 -0.00012207L102.886 6.83378L109.71 8.67379L102.886 10.5138L101.048 17.3477L99.2111 10.5138L92.3871 8.67379L99.2111 6.83378L101.048 -0.00012207Z" fill="#E08330" fill-opacity="0.61"/>
<path d="M125.982 6.83378L124.145 -0.00012207L122.308 6.83378L115.484 8.67379L122.308 10.5138L124.145 17.3477L125.982 10.5138L132.806 8.67379L125.982 6.83378Z" fill="#E08330" fill-opacity="0.61"/>
<path d="M147.242 -0.00012207L149.079 6.83378L155.903 8.67379L149.079 10.5138L147.242 17.3477L145.405 10.5138L138.581 8.67379L145.405 6.83378L147.242 -0.00012207Z" fill="#E08330" fill-opacity="0.61"/>
<path d="M172.176 6.83378L170.339 -0.00012207L168.501 6.83378L161.677 8.67379L168.501 10.5138L170.339 17.3477L172.176 10.5138L179 8.67379L172.176 6.83378Z" fill="#E08330" fill-opacity="0.61"/>
<path d="M8.66129 23.1303L10.4986 29.9642L17.3226 31.8042L10.4986 33.6442L8.66129 40.4781L6.82395 33.6442L0 31.8042L6.82395 29.9642L8.66129 23.1303Z" fill="#E08330" fill-opacity="0.61"/>
<path d="M33.5954 29.9642L31.7581 23.1303L29.9207 29.9642L23.0968 31.8042L29.9207 33.6442L31.7581 40.4781L33.5954 33.6442L40.4194 31.8042L33.5954 29.9642Z" fill="#E08330" fill-opacity="0.61"/>
<path d="M54.8548 23.1303L56.6922 29.9642L63.5161 31.8042L56.6922 33.6442L54.8548 40.4781L53.0175 33.6442L46.1935 31.8042L53.0175 29.9642L54.8548 23.1303Z" fill="#E08330" fill-opacity="0.61"/>
<path d="M79.7889 29.9642L77.9516 23.1303L76.1143 29.9642L69.2903 31.8042L76.1143 33.6442L77.9516 40.4781L79.7889 33.6442L86.6129 31.8042L79.7889 29.9642Z" fill="#E08330" fill-opacity="0.61"/>
<path d="M101.048 23.1303L102.886 29.9642L109.71 31.8042L102.886 33.6442L101.048 40.4781L99.2111 33.6442L92.3871 31.8042L99.2111 29.9642L101.048 23.1303Z" fill="#E08330" fill-opacity="0.61"/>
<path d="M125.982 29.9642L124.145 23.1303L122.308 29.9642L115.484 31.8042L122.308 33.6442L124.145 40.4781L125.982 33.6442L132.806 31.8042L125.982 29.9642Z" fill="#E08330" fill-opacity="0.61"/>
<path d="M147.242 23.1303L149.079 29.9642L155.903 31.8042L149.079 33.6442L147.242 40.4781L145.405 33.6442L138.581 31.8042L145.405 29.9642L147.242 23.1303Z" fill="#E08330" fill-opacity="0.61"/>
<path d="M172.176 29.9642L170.339 23.1303L168.501 29.9642L161.677 31.8042L168.501 33.6442L170.339 40.4781L172.176 33.6442L179 31.8042L172.176 29.9642Z" fill="#E08330" fill-opacity="0.61"/>
<path d="M8.66129 46.2607L10.4986 53.0947L17.3226 54.9347L10.4986 56.7747L8.66129 63.6086L6.82395 56.7747L0 54.9347L6.82395 53.0947L8.66129 46.2607Z" fill="#E08330" fill-opacity="0.61"/>
<path d="M33.5954 53.0947L31.7581 46.2607L29.9207 53.0947L23.0968 54.9347L29.9207 56.7747L31.7581 63.6086L33.5954 56.7747L40.4194 54.9347L33.5954 53.0947Z" fill="#E08330" fill-opacity="0.61"/>
<path d="M54.8548 46.2607L56.6922 53.0947L63.5161 54.9347L56.6922 56.7747L54.8548 63.6086L53.0175 56.7747L46.1935 54.9347L53.0175 53.0947L54.8548 46.2607Z" fill="#E08330" fill-opacity="0.61"/>
<path d="M79.7889 53.0947L77.9516 46.2607L76.1143 53.0947L69.2903 54.9347L76.1143 56.7747L77.9516 63.6086L79.7889 56.7747L86.6129 54.9347L79.7889 53.0947Z" fill="#E08330" fill-opacity="0.61"/>
<path d="M101.048 46.2607L102.886 53.0947L109.71 54.9347L102.886 56.7747L101.048 63.6086L99.2111 56.7747L92.3871 54.9347L99.2111 53.0947L101.048 46.2607Z" fill="#E08330" fill-opacity="0.61"/>
<path d="M125.982 53.0947L124.145 46.2607L122.308 53.0947L115.484 54.9347L122.308 56.7747L124.145 63.6086L125.982 56.7747L132.806 54.9347L125.982 53.0947Z" fill="#E08330" fill-opacity="0.61"/>
<path d="M147.242 46.2607L149.079 53.0947L155.903 54.9347L149.079 56.7747L147.242 63.6086L145.405 56.7747L138.581 54.9347L145.405 53.0947L147.242 46.2607Z" fill="#E08330" fill-opacity="0.61"/>
<path d="M172.176 53.0947L170.339 46.2607L168.501 53.0947L161.677 54.9347L168.501 56.7747L170.339 63.6086L172.176 56.7747L179 54.9347L172.176 53.0947Z" fill="#E08330" fill-opacity="0.61"/>
<path d="M8.66129 69.3912L10.4986 76.2251L17.3226 78.0651L10.4986 79.9051L8.66129 86.739L6.82395 79.9051L0 78.0651L6.82395 76.2251L8.66129 69.3912Z" fill="#E08330" fill-opacity="0.61"/>
<path d="M33.5954 76.2251L31.7581 69.3912L29.9207 76.2251L23.0968 78.0651L29.9207 79.9051L31.7581 86.739L33.5954 79.9051L40.4194 78.0651L33.5954 76.2251Z" fill="#E08330" fill-opacity="0.61"/>
<path d="M54.8548 69.3912L56.6922 76.2251L63.5161 78.0651L56.6922 79.9051L54.8548 86.739L53.0175 79.9051L46.1935 78.0651L53.0175 76.2251L54.8548 69.3912Z" fill="#E08330" fill-opacity="0.61"/>
<path d="M79.7889 76.2251L77.9516 69.3912L76.1143 76.2251L69.2903 78.0651L76.1143 79.9051L77.9516 86.739L79.7889 79.9051L86.6129 78.0651L79.7889 76.2251Z" fill="#E08330" fill-opacity="0.61"/>
<path d="M101.048 69.3912L102.886 76.2251L109.71 78.0651L102.886 79.9051L101.048 86.739L99.2111 79.9051L92.3871 78.0651L99.2111 76.2251L101.048 69.3912Z" fill="#E08330" fill-opacity="0.61"/>
<path d="M125.982 76.2251L124.145 69.3912L122.308 76.2251L115.484 78.0651L122.308 79.9051L124.145 86.739L125.982 79.9051L132.806 78.0651L125.982 76.2251Z" fill="#E08330" fill-opacity="0.61"/>
<path d="M147.242 69.3912L149.079 76.2251L155.903 78.0651L149.079 79.9051L147.242 86.739L145.405 79.9051L138.581 78.0651L145.405 76.2251L147.242 69.3912Z" fill="#E08330" fill-opacity="0.61"/>
<path d="M172.176 76.2251L170.339 69.3912L168.501 76.2251L161.677 78.0651L168.501 79.9051L170.339 86.739L172.176 79.9051L179 78.0651L172.176 76.2251Z" fill="#E08330" fill-opacity="0.61"/>
<path d="M8.66129 92.5216L10.4986 99.3555L17.3226 101.196L10.4986 103.036L8.66129 109.869L6.82395 103.036L0 101.196L6.82395 99.3555L8.66129 92.5216Z" fill="#E08330" fill-opacity="0.61"/>
<path d="M33.5954 99.3555L31.7581 92.5216L29.9207 99.3555L23.0968 101.196L29.9207 103.036L31.7581 109.869L33.5954 103.036L40.4194 101.196L33.5954 99.3555Z" fill="#E08330" fill-opacity="0.61"/>
<path d="M54.8548 92.5216L56.6922 99.3555L63.5161 101.196L56.6922 103.036L54.8548 109.869L53.0175 103.036L46.1935 101.196L53.0175 99.3555L54.8548 92.5216Z" fill="#E08330" fill-opacity="0.61"/>
<path d="M79.7889 99.3555L77.9516 92.5216L76.1143 99.3555L69.2903 101.196L76.1143 103.036L77.9516 109.869L79.7889 103.036L86.6129 101.196L79.7889 99.3555Z" fill="#E08330" fill-opacity="0.61"/>
<path d="M101.048 92.5216L102.886 99.3555L109.71 101.196L102.886 103.036L101.048 109.869L99.2111 103.036L92.3871 101.196L99.2111 99.3555L101.048 92.5216Z" fill="#E08330" fill-opacity="0.61"/>
<path d="M125.982 99.3555L124.145 92.5216L122.308 99.3555L115.484 101.196L122.308 103.036L124.145 109.869L125.982 103.036L132.806 101.196L125.982 99.3555Z" fill="#E08330" fill-opacity="0.61"/>
<path d="M147.242 92.5216L149.079 99.3555L155.903 101.196L149.079 103.036L147.242 109.869L145.405 103.036L138.581 101.196L145.405 99.3555L147.242 92.5216Z" fill="#E08330" fill-opacity="0.61"/>
<path d="M172.176 99.3555L170.339 92.5216L168.501 99.3555L161.677 101.196L168.501 103.036L170.339 109.869L172.176 103.036L179 101.196L172.176 99.3555Z" fill="#E08330" fill-opacity="0.61"/>
<path d="M8.66129 115.652L10.4986 122.486L17.3226 124.326L10.4986 126.166L8.66129 133L6.82395 126.166L0 124.326L6.82395 122.486L8.66129 115.652Z" fill="#E08330" fill-opacity="0.61"/>
<path d="M33.5954 122.486L31.7581 115.652L29.9207 122.486L23.0968 124.326L29.9207 126.166L31.7581 133L33.5954 126.166L40.4194 124.326L33.5954 122.486Z" fill="#E08330" fill-opacity="0.61"/>
<path d="M54.8548 115.652L56.6922 122.486L63.5161 124.326L56.6922 126.166L54.8548 133L53.0175 126.166L46.1935 124.326L53.0175 122.486L54.8548 115.652Z" fill="#E08330" fill-opacity="0.61"/>
<path d="M79.7889 122.486L77.9516 115.652L76.1143 122.486L69.2903 124.326L76.1143 126.166L77.9516 133L79.7889 126.166L86.6129 124.326L79.7889 122.486Z" fill="#E08330" fill-opacity="0.61"/>
<path d="M101.048 115.652L102.886 122.486L109.71 124.326L102.886 126.166L101.048 133L99.2111 126.166L92.3871 124.326L99.2111 122.486L101.048 115.652Z" fill="#E08330" fill-opacity="0.61"/>
<path d="M125.982 122.486L124.145 115.652L122.308 122.486L115.484 124.326L122.308 126.166L124.145 133L125.982 126.166L132.806 124.326L125.982 122.486Z" fill="#E08330" fill-opacity="0.61"/>
<path d="M147.242 115.652L149.079 122.486L155.903 124.326L149.079 126.166L147.242 133L145.405 126.166L138.581 124.326L145.405 122.486L147.242 115.652Z" fill="#E08330" fill-opacity="0.61"/>
<path d="M172.176 122.486L170.339 115.652L168.501 122.486L161.677 124.326L168.501 126.166L170.339 133L172.176 126.166L179 124.326L172.176 122.486Z" fill="#E08330" fill-opacity="0.61"/>
</svg>
