<svg width="312" height="334" viewBox="0 0 312 334" fill="none" xmlns="http://www.w3.org/2000/svg">
<path d="M125.342 2.23185L121.25 10.5141L173.593 7.11834L159.248 0.0321715L125.342 2.23185Z" fill="#69AD55"/>
<path d="M198.071 19.2097L114.269 24.6463L110.178 32.9285L212.416 26.2959L198.071 19.2097Z" fill="#69AD55"/>
<path d="M236.894 38.3872L103.197 47.0608L99.1061 55.343L251.239 45.4734L236.894 38.3872Z" fill="#69AD55"/>
<path d="M275.717 57.5647L92.1252 69.4752L88.034 77.7574L290.062 64.6509L275.717 57.5647Z" fill="#69AD55"/>
<path d="M311.509 76.9389L81.053 91.8897L76.9618 100.172L307.417 85.2211L311.509 76.9389Z" fill="#69AD55"/>
<path d="M300.437 99.3533L69.9809 114.304L65.8897 122.586L296.345 107.636L300.437 99.3533Z" fill="#69AD55"/>
<path d="M289.364 121.768L58.9087 136.719L54.8175 145.001L285.273 130.05L289.364 121.768Z" fill="#69AD55"/>
<path d="M278.292 144.182L47.8366 159.133L43.7454 167.415L274.201 152.464L278.292 144.182Z" fill="#69AD55"/>
<path d="M267.22 166.597L36.7644 181.547L32.6732 189.83L263.129 174.879L267.22 166.597Z" fill="#69AD55"/>
<path d="M256.148 189.011L25.6923 203.962L21.6011 212.244L252.057 197.293L256.148 189.011Z" fill="#69AD55"/>
<path d="M245.076 211.426L14.6202 226.376L10.529 234.659L240.985 219.708L245.076 211.426Z" fill="#69AD55"/>
<path d="M234.004 233.84L3.54803 248.791L1.35899e-05 255.973L1.90462 256.914L229.912 242.122L234.004 233.84Z" fill="#69AD55"/>
<path d="M222.932 256.255L26.3824 269.006L40.7276 276.092L218.84 264.537L222.932 256.255Z" fill="#69AD55"/>
<path d="M211.859 278.669L65.2053 288.183L79.5506 295.269L207.768 286.951L211.859 278.669Z" fill="#69AD55"/>
<path d="M200.787 301.083L104.028 307.361L118.374 314.447L196.696 309.366L200.787 301.083Z" fill="#69AD55"/>
<path d="M189.715 323.498L142.851 326.538L157.197 333.624L185.624 331.78L189.715 323.498Z" fill="#69AD55"/>
</svg>
