<svg width="207" height="24" viewBox="0 0 207 24" fill="none" xmlns="http://www.w3.org/2000/svg">
<path d="M10.016 23.384C8.224 23.384 6.50667 23.1493 4.864 22.68C3.22133 22.1893 1.89867 21.56 0.896 20.792L2.656 16.888C3.616 17.5707 4.74667 18.136 6.048 18.584C7.37067 19.0107 8.704 19.224 10.048 19.224C11.072 19.224 11.8933 19.128 12.512 18.936C13.152 18.7227 13.6213 18.4347 13.92 18.072C14.2187 17.7093 14.368 17.2933 14.368 16.824C14.368 16.2267 14.1333 15.7573 13.664 15.416C13.1947 15.0533 12.576 14.7653 11.808 14.552C11.04 14.3173 10.1867 14.104 9.248 13.912C8.33067 13.6987 7.40267 13.4427 6.464 13.144C5.54667 12.8453 4.704 12.4613 3.936 11.992C3.168 11.5227 2.53867 10.904 2.048 10.136C1.57867 9.368 1.344 8.38667 1.344 7.192C1.344 5.912 1.68533 4.74933 2.368 3.704C3.072 2.63733 4.11733 1.79467 5.504 1.176C6.912 0.535999 8.672 0.216 10.784 0.216C12.192 0.216 13.5787 0.386666 14.944 0.727999C16.3093 1.048 17.5147 1.53867 18.56 2.2L16.96 6.136C15.9147 5.53867 14.8693 5.10133 13.824 4.824C12.7787 4.52533 11.7547 4.376 10.752 4.376C9.74933 4.376 8.928 4.49333 8.288 4.728C7.648 4.96267 7.18933 5.272 6.912 5.656C6.63467 6.01867 6.496 6.44533 6.496 6.936C6.496 7.512 6.73067 7.98133 7.2 8.344C7.66933 8.68533 8.288 8.96267 9.056 9.176C9.824 9.38933 10.6667 9.60267 11.584 9.816C12.5227 10.0293 13.4507 10.2747 14.368 10.552C15.3067 10.8293 16.16 11.2027 16.928 11.672C17.696 12.1413 18.3147 12.76 18.784 13.528C19.2747 14.296 19.52 15.2667 19.52 16.44C19.52 17.6987 19.168 18.8507 18.464 19.896C17.76 20.9413 16.704 21.784 15.296 22.424C13.9093 23.064 12.1493 23.384 10.016 23.384ZM24.5623 23V0.599998H34.2583C36.2636 0.599998 37.9916 0.930665 39.4423 1.592C40.8929 2.232 42.0129 3.16 42.8023 4.376C43.5916 5.592 43.9863 7.04267 43.9863 8.728C43.9863 10.392 43.5916 11.832 42.8023 13.048C42.0129 14.264 40.8929 15.2027 39.4423 15.864C37.9916 16.504 36.2636 16.824 34.2583 16.824H27.4423L29.7463 14.488V23H24.5623ZM29.7463 15.064L27.4423 12.6H33.9703C35.5703 12.6 36.7649 12.2587 37.5543 11.576C38.3436 10.8933 38.7383 9.944 38.7383 8.728C38.7383 7.49067 38.3436 6.53067 37.5543 5.848C36.7649 5.16533 35.5703 4.824 33.9703 4.824H27.4423L29.7463 2.36V15.064ZM45.1182 23L55.1023 0.599998H60.2223L70.2383 23H64.7983L56.6063 3.224H58.6543L50.4303 23H45.1182ZM50.1102 18.2L51.4863 14.264H63.0063L64.4143 18.2H50.1102ZM74.0623 23V0.599998H83.7583C85.7636 0.599998 87.4916 0.930665 88.9423 1.592C90.3929 2.232 91.5129 3.16 92.3023 4.376C93.0916 5.592 93.4863 7.04267 93.4863 8.728C93.4863 10.392 93.0916 11.832 92.3023 13.048C91.5129 14.2427 90.3929 15.16 88.9423 15.8C87.4916 16.44 85.7636 16.76 83.7583 16.76H76.9423L79.2463 14.488V23H74.0623ZM88.3022 23L82.7023 14.872H88.2383L93.9023 23H88.3022ZM79.2463 15.064L76.9423 12.632H83.4703C85.0703 12.632 86.2649 12.2907 87.0543 11.608C87.8436 10.904 88.2383 9.944 88.2383 8.728C88.2383 7.49067 87.8436 6.53067 87.0543 5.848C86.2649 5.16533 85.0703 4.824 83.4703 4.824H76.9423L79.2463 2.36V15.064ZM99.0935 23V0.599998H108.79C110.795 0.599998 112.523 0.930665 113.974 1.592C115.424 2.232 116.544 3.16 117.334 4.376C118.123 5.592 118.518 7.04267 118.518 8.728C118.518 10.392 118.123 11.832 117.334 13.048C116.544 14.2427 115.424 15.16 113.974 15.8C112.523 16.44 110.795 16.76 108.79 16.76H101.974L104.278 14.488V23H99.0935ZM113.333 23L107.734 14.872H113.27L118.934 23H113.333ZM104.278 15.064L101.974 12.632H108.502C110.102 12.632 111.296 12.2907 112.086 11.608C112.875 10.904 113.27 9.944 113.27 8.728C113.27 7.49067 112.875 6.53067 112.086 5.848C111.296 5.16533 110.102 4.824 108.502 4.824H101.974L104.278 2.36V15.064ZM128.765 17.88L128.477 11.896L139.197 0.599998H144.957L135.293 11L132.413 14.072L128.765 17.88ZM124.125 23V0.599998H129.277V23H124.125ZM139.453 23L131.485 13.24L134.877 9.56L145.501 23H139.453ZM169.827 23.384C166.648 23.384 164.163 22.4987 162.371 20.728C160.579 18.9573 159.683 16.4293 159.683 13.144V0.599998H164.867V12.952C164.867 15.0853 165.304 16.6213 166.179 17.56C167.053 18.4987 168.28 18.968 169.859 18.968C171.437 18.968 172.664 18.4987 173.539 17.56C174.413 16.6213 174.851 15.0853 174.851 12.952V0.599998H179.971V13.144C179.971 16.4293 179.075 18.9573 177.283 20.728C175.491 22.4987 173.005 23.384 169.827 23.384ZM186.594 23V0.599998H196.29C198.295 0.599998 200.023 0.930665 201.474 1.592C202.924 2.232 204.044 3.16 204.834 4.376C205.623 5.592 206.018 7.04267 206.018 8.728C206.018 10.392 205.623 11.832 204.834 13.048C204.044 14.264 202.924 15.2027 201.474 15.864C200.023 16.504 198.295 16.824 196.29 16.824H189.474L191.778 14.488V23H186.594ZM191.778 15.064L189.474 12.6H196.002C197.602 12.6 198.796 12.2587 199.586 11.576C200.375 10.8933 200.77 9.944 200.77 8.728C200.77 7.49067 200.375 6.53067 199.586 5.848C198.796 5.16533 197.602 4.824 196.002 4.824H189.474L191.778 2.36V15.064Z" fill="white"/>
</svg>
